{
  "accessors": [
    {
      "bufferView": 2,
      "componentType": 5126,
      "count": 65532,
      "max": [
        11.318531036376953,
        8.577988624572754,
        29.033023834228516
      ],
      "min": [
        -10.478814125061035,
        -5.293773174285889,
        0.9999979734420776
      ],
      "type": "VEC3"
    },
    {
      "bufferView": 2,
      "byteOffset": 786384,
      "componentType": 5126,
      "count": 65532,
      "max": [
        0.9999998807907104,
        0.9999998807907104,
        0.9999992847442627
      ],
      "min": [
        -1.0,
        -1.0,
        -0.999974250793457
      ],
      "type": "VEC3"
    },
    {
      "bufferView": 1,
      "componentType": 5126,
      "count": 65532,
      "max": [
        0.9992660284042358,
        0.9997559785842896
      ],
      "min": [
        0.00024399999529123306,
        0.0003929999948013574
      ],
      "type": "VEC2"
    },
    {
      "bufferView": 0,
      "componentType": 5125,
      "count": 315780,
      "type": "SCALAR"
    },
    {
      "bufferView": 2,
      "byteOffset": 1572768,
      "componentType": 5126,
      "count": 65532,
      "max": [
        11.21845817565918,
        9.365822792053223,
        29.644920349121094
      ],
      "min": [
        -8.614837646484375,
        -5.347084999084473,
        1.0000009536743164
      ],
      "type": "VEC3"
    },
    {
      "bufferView": 2,
      "byteOffset": 2359152,
      "componentType": 5126,
      "count": 65532,
      "max": [
        1.0,
        0.9999998807907104,
        0.9999985694885254
      ],
      "min": [
        -0.999993085861206,
        -0.9999979734420776,
        -0.9999583959579468
      ],
      "type": "VEC3"
    },
    {
      "bufferView": 1,
      "byteOffset": 524256,
      "componentType": 5126,
      "count": 65532,
      "max": [
        0.9995909929275513,
        0.9997559785842896
      ],
      "min": [
        0.00024399999529123306,
        0.0003809999907389283
      ],
      "type": "VEC2"
    },
    {
      "bufferView": 0,
      "byteOffset": 1263120,
      "componentType": 5125,
      "count": 293574,
      "type": "SCALAR"
    },
    {
      "bufferView": 2,
      "byteOffset": 3145536,
      "componentType": 5126,
      "count": 65532,
      "max": [
        10.851263046264648,
        6.343228816986084,
        26.735448837280273
      ],
      "min": [
        -3.381627082824707,
        -5.2123308181762695,
        1.0096149444580078
      ],
      "type": "VEC3"
    },
    {
      "bufferView": 2,
      "byteOffset": 3931920,
      "componentType": 5126,
      "count": 65532,
      "max": [
        0.9999973773956299,
        0.9999998807907104,
        0.9999840259552002
      ],
      "min": [
        -0.9999842643737793,
        -0.9999146461486816,
        -0.9999680519104004
      ],
      "type": "VEC3"
    },
    {
      "bufferView": 1,
      "byteOffset": 1048512,
      "componentType": 5126,
      "count": 65532,
      "max": [
        0.9994760155677795,
        0.9997559785842896
      ],
      "min": [
        0.00024399999529123306,
        0.0004569999873638153
      ],
      "type": "VEC2"
    },
    {
      "bufferView": 0,
      "byteOffset": 2437416,
      "componentType": 5125,
      "count": 306963,
      "type": "SCALAR"
    },
    {
      "bufferView": 2,
      "byteOffset": 4718304,
      "componentType": 5126,
      "count": 65532,
      "max": [
        8.668387413024902,
        8.259071350097656,
        26.977764129638672
      ],
      "min": [
        -10.478814125061035,
        -5.63903284072876,
        1.030007004737854
      ],
      "type": "VEC3"
    },
    {
      "bufferView": 2,
      "byteOffset": 5504688,
      "componentType": 5126,
      "count": 65532,
      "max": [
        0.9999973773956299,
        0.9999889135360718,
        1.0
      ],
      "min": [
        -0.9999994039535522,
        -1.0,
        -0.9999850988388062
      ],
      "type": "VEC3"
    },
    {
      "bufferView": 1,
      "byteOffset": 1572768,
      "componentType": 5126,
      "count": 65532,
      "max": [
        0.9995949864387512,
        0.9997559785842896
      ],
      "min": [
        0.00024399999529123306,
        0.00039400000241585076
      ],
      "type": "VEC2"
    },
    {
      "bufferView": 0,
      "byteOffset": 3665268,
      "componentType": 5125,
      "count": 276219,
      "type": "SCALAR"
    },
    {
      "bufferView": 2,
      "byteOffset": 6291072,
      "componentType": 5126,
      "count": 65532,
      "max": [
        12.174138069152832,
        9.317597389221191,
        17.829591751098633
      ],
      "min": [
        -9.066452026367188,
        -5.278348922729492,
        0.9999989867210388
      ],
      "type": "VEC3"
    },
    {
      "bufferView": 2,
      "byteOffset": 7077456,
      "componentType": 5126,
      "count": 65532,
      "max": [
        0.9999997615814209,
        0.9999963045120239,
        0.9999996423721313
      ],
      "min": [
        -0.9999685287475586,
        -0.9999992847442627,
        -0.9999995231628418
      ],
      "type": "VEC3"
    },
    {
      "bufferView": 1,
      "byteOffset": 2097024,
      "componentType": 5126,
      "count": 65532,
      "max": [
        0.9996309876441956,
        0.9997559785842896
      ],
      "min": [
        0.00024399999529123306,
        0.000391999987186864
      ],
      "type": "VEC2"
    },
    {
      "bufferView": 0,
      "byteOffset": 4770144,
      "componentType": 5125,
      "count": 256671,
      "type": "SCALAR"
    },
    {
      "bufferView": 2,
      "byteOffset": 7863840,
      "componentType": 5126,
      "count": 65532,
      "max": [
        12.983807563781738,
        7.328066825866699,
        29.818092346191406
      ],
      "min": [
        -10.427903175354004,
        -5.6424880027771,
        1.0559929609298706
      ],
      "type": "VEC3"
    },
    {
      "bufferView": 2,
      "byteOffset": 8650224,
      "componentType": 5126,
      "count": 65532,
      "max": [
        0.9999995231628418,
        0.9999992847442627,
        0.999988317489624
      ],
      "min": [
        -0.9999997615814209,
        -0.9999998807907104,
        -0.9999951124191284
      ],
      "type": "VEC3"
    },
    {
      "bufferView": 1,
      "byteOffset": 2621280,
      "componentType": 5126,
      "count": 65532,
      "max": [
        0.9996230006217957,
        0.9997559785842896
      ],
      "min": [
        0.00024399999529123306,
        0.00045200000749900937
      ],
      "type": "VEC2"
    },
    {
      "bufferView": 0,
      "byteOffset": 5796828,
      "componentType": 5125,
      "count": 257403,
      "type": "SCALAR"
    },
    {
      "bufferView": 2,
      "byteOffset": 9436608,
      "componentType": 5126,
      "count": 25313,
      "max": [
        12.553488731384277,
        7.482699871063232,
        26.844310760498047
      ],
      "min": [
        -9.519584655761719,
        -5.631022930145264,
        1.0365710258483887
      ],
      "type": "VEC3"
    },
    {
      "bufferView": 2,
      "byteOffset": 9740364,
      "componentType": 5126,
      "count": 25313,
      "max": [
        0.9999912977218628,
        0.9997506737709045,
        0.9999961853027344
      ],
      "min": [
        -0.9999986886978149,
        -0.9999979734420776,
        -0.9998258948326111
      ],
      "type": "VEC3"
    },
    {
      "bufferView": 1,
      "byteOffset": 3145536,
      "componentType": 5126,
      "count": 25313,
      "max": [
        0.9995589852333069,
        0.9997559785842896
      ],
      "min": [
        0.00024399999529123306,
        0.0003910000086762011
      ],
      "type": "VEC2"
    },
    {
      "bufferView": 0,
      "byteOffset": 6826440,
      "componentType": 5125,
      "count": 90363,
      "type": "SCALAR"
    },
    {
      "bufferView": 2,
      "byteOffset": 10044120,
      "componentType": 5126,
      "count": 2104,
      "max": [
        11.23240852355957,
        6.343434810638428,
        1.0000029802322388
      ],
      "min": [
        -7.508127212524414,
        -5.191628932952881,
        0.9999979734420776
      ],
      "type": "VEC3"
    },
    {
      "bufferView": 2,
      "byteOffset": 10069368,
      "componentType": 5126,
      "count": 2104,
      "max": [
        0.021000675857067108,
        0.26959046721458435,
        0.9999998807907104
      ],
      "min": [
        -0.038099005818367004,
        -0.7250170707702637,
        -1.0
      ],
      "type": "VEC3"
    },
    {
      "bufferView": 1,
      "byteOffset": 3348040,
      "componentType": 5126,
      "count": 2104,
      "max": [
        0.8204470276832581,
        0.6753619909286499
      ],
      "min": [
        0.6446089744567871,
        0.5634639859199524
      ],
      "type": "VEC2"
    },
    {
      "bufferView": 0,
      "byteOffset": 7187892,
      "componentType": 5125,
      "count": 3477,
      "type": "SCALAR"
    }
  ],
  "asset": {
    "extras": {
      "author": "noe-3d.at (https://sketchfab.com/www.noe-3d.at)",
      "license": "CC-BY-NC-4.0 (http://creativecommons.org/licenses/by-nc/4.0/)",
      "source": "https://sketchfab.com/3d-models/kriegerdenkmal-67061bef9d2b4ee697f0d5c87912b200",
      "title": "Kriegerdenkmal"
    },
    "generator": "Sketchfab-12.64.0",
    "version": "2.0"
  },
  "bufferViews": [
    {
      "buffer": 0,
      "byteLength": 7201800,
      "name": "floatBufferViews",
      "target": 34963
    },
    {
      "buffer": 0,
      "byteLength": 3364872,
      "byteOffset": 7201800,
      "byteStride": 8,
      "name": "floatBufferViews",
      "target": 34962
    },
    {
      "buffer": 0,
      "byteLength": 10094616,
      "byteOffset": 10566672,
      "byteStride": 12,
      "name": "floatBufferViews",
      "target": 34962
    }
  ],
  "buffers": [
    {
      "byteLength": 20661288,
      "uri": "scene.bin"
    }
  ],
  "images": [
    {
      "uri": "textures/Kriegerdenkmal_O_Material_u1_v1_baseColor.png"
    }
  ],
  "materials": [
    {
      "doubleSided": true,
      "name": "Kriegerdenkmal_O_Material_u1_v1",
      "pbrMetallicRoughness": {
        "baseColorTexture": {
          "index": 0
        },
        "metallicFactor": 0.0
      }
    },
    {
      "doubleSided": true,
      "name": "bottom",
      "pbrMetallicRoughness": {
        "baseColorFactor": [
          0.178862,
          0.178862,
          0.178862,
          1.0
        ],
        "metallicFactor": 0.0
      }
    }
  ],
  "meshes": [
    {
      "name": "Object_0",
      "primitives": [
        {
          "attributes": {
            "NORMAL": 1,
            "POSITION": 0,
            "TEXCOORD_0": 2
          },
          "indices": 3,
          "material": 0,
          "mode": 4
        }
      ]
    },
    {
      "name": "Object_1",
      "primitives": [
        {
          "attributes": {
            "NORMAL": 5,
            "POSITION": 4,
            "TEXCOORD_0": 6
          },
          "indices": 7,
          "material": 0,
          "mode": 4
        }
      ]
    },
    {
      "name": "Object_2",
      "primitives": [
        {
          "attributes": {
            "NORMAL": 9,
            "POSITION": 8,
            "TEXCOORD_0": 10
          },
          "indices": 11,
          "material": 0,
          "mode": 4
        }
      ]
    },
    {
      "name": "Object_3",
      "primitives": [
        {
          "attributes": {
            "NORMAL": 13,
            "POSITION": 12,
            "TEXCOORD_0": 14
          },
          "indices": 15,
          "material": 0,
          "mode": 4
        }
      ]
    },
    {
      "name": "Object_4",
      "primitives": [
        {
          "attributes": {
            "NORMAL": 17,
            "POSITION": 16,
            "TEXCOORD_0": 18
          },
          "indices": 19,
          "material": 0,
          "mode": 4
        }
      ]
    },
    {
      "name": "Object_5",
      "primitives": [
        {
          "attributes": {
            "NORMAL": 21,
            "POSITION": 20,
            "TEXCOORD_0": 22
          },
          "indices": 23,
          "material": 0,
          "mode": 4
        }
      ]
    },
    {
      "name": "Object_6",
      "primitives": [
        {
          "attributes": {
            "NORMAL": 25,
            "POSITION": 24,
            "TEXCOORD_0": 26
          },
          "indices": 27,
          "material": 0,
          "mode": 4
        }
      ]
    },
    {
      "name": "Object_7",
      "primitives": [
        {
          "attributes": {
            "NORMAL": 29,
            "POSITION": 28,
            "TEXCOORD_0": 30
          },
          "indices": 31,
          "material": 1,
          "mode": 4
        }
      ]
    }
  ],
  "nodes": [
    {
      "children": [
        1
      ],
      "matrix": [
        -0.9999841451644897,
        -1.250499079821048e-18,
        0.00563174718990922,
        0.0,
        0.00563174718990922,
        -2.2204108444434428e-16,
        0.9999841451644897,
        0.0,
        0.0,
        1.0,
        2.220446049250313e-16,
        0.0,
        2.4944891929626465,
        8.283065310981655e-16,
        -3.730360984802246,
        1.0
      ],
      "name": "Sketchfab_model"
    },
    {
      "children": [
        2,
        3,
        4,
        5,
        6,
        7,
        8,
        9
      ],
      "name": "Kriegerdenkmal_C.obj.cleaner.materialmerger.gles"
    },
    {
      "mesh": 0,
      "name": "Object_2"
    },
    {
      "mesh": 1,
      "name": "Object_3"
    },
    {
      "mesh": 2,
      "name": "Object_4"
    },
    {
      "mesh": 3,
      "name": "Object_5"
    },
    {
      "mesh": 4,
      "name": "Object_6"
    },
    {
      "mesh": 5,
      "name": "Object_7"
    },
    {
      "mesh": 6,
      "name": "Object_8"
    },
    {
      "mesh": 7,
      "name": "Object_9"
    }
  ],
  "samplers": [
    {
      "magFilter": 9729,
      "minFilter": 9987,
      "wrapS": 10497,
      "wrapT": 10497
    }
  ],
  "scene": 0,
  "scenes": [
    {
      "name": "Sketchfab_Scene",
      "nodes": [
        0
      ]
    }
  ],
  "textures": [
    {
      "sampler": 0,
      "source": 0
    }
  ]
}
