{
  "accessors": [
    {
      "bufferView": 2,
      "componentType": 5126,
      "count": 65532,
      "max": [
        13.904717445373535,
        14.813936233520508,
        2.313113212585449
      ],
      "min": [
        -4.716577529907227,
        -2.702125310897827,
        -20.414352416992188
      ],
      "type": "VEC3"
    },
    {
      "bufferView": 2,
      "byteOffset": 786384,
      "componentType": 5126,
      "count": 65532,
      "max": [
        0.9996345043182373,
        0.9987402558326721,
        0.9989321231842041
      ],
      "min": [
        -0.9999701380729675,
        -0.9999608993530273,
        -0.9999169111251831
      ],
      "type": "VEC3"
    },
    {
      "bufferView": 1,
      "componentType": 5126,
      "count": 65532,
      "max": [
        0.9998244643211365,
        0.9999758005142212
      ],
      "min": [
        0.00030172080732882023,
        5.272217094898224e-06
      ],
      "type": "VEC2"
    },
    {
      "bufferView": 0,
      "componentType": 5125,
      "count": 341868,
      "type": "SCALAR"
    },
    {
      "bufferView": 2,
      "byteOffset": 1572768,
      "componentType": 5126,
      "count": 65532,
      "max": [
        12.350220680236816,
        13.281454086303711,
        19.166017532348633
      ],
      "min": [
        -13.280489921569824,
        -13.969310760498047,
        -18.04157066345215
      ],
      "type": "VEC3"
    },
    {
      "bufferView": 2,
      "byteOffset": 2359152,
      "componentType": 5126,
      "count": 65532,
      "max": [
        0.9999939203262329,
        0.9997711181640625,
        0.9999057650566101
      ],
      "min": [
        -0.999944269657135,
        -0.999994158744812,
        -0.9999783039093018
      ],
      "type": "VEC3"
    },
    {
      "bufferView": 1,
      "byteOffset": 524256,
      "componentType": 5126,
      "count": 65532,
      "max": [
        0.9997527003288269,
        0.9999856352806091
      ],
      "min": [
        2.056919038295746e-05,
        4.529021680355072e-06
      ],
      "type": "VEC2"
    },
    {
      "bufferView": 0,
      "byteOffset": 1367472,
      "componentType": 5125,
      "count": 330819,
      "type": "SCALAR"
    },
    {
      "bufferView": 2,
      "byteOffset": 3145536,
      "componentType": 5126,
      "count": 57778,
      "max": [
        13.64626407623291,
        14.964521408081055,
        19.0120849609375
      ],
      "min": [
        -15.505928993225098,
        -13.200223922729492,
        -20.5362548828125
      ],
      "type": "VEC3"
    },
    {
      "bufferView": 2,
      "byteOffset": 3838872,
      "componentType": 5126,
      "count": 57778,
      "max": [
        0.999975860118866,
        0.9997801780700684,
        0.9999685287475586
      ],
      "min": [
        -0.9999738335609436,
        -0.9999914169311523,
        -0.999936044216156
      ],
      "type": "VEC3"
    },
    {
      "bufferView": 1,
      "byteOffset": 1048512,
      "componentType": 5126,
      "count": 57778,
      "max": [
        0.9998311996459961,
        0.9999983906745911
      ],
      "min": [
        1.9276196326245554e-05,
        5.7980651035904884e-06
      ],
      "type": "VEC2"
    },
    {
      "bufferView": 0,
      "byteOffset": 2690748,
      "componentType": 5125,
      "count": 218442,
      "type": "SCALAR"
    },
    {
      "bufferView": 2,
      "byteOffset": 4532208,
      "componentType": 5126,
      "count": 65532,
      "max": [
        10.772390365600586,
        17.318832397460938,
        12.212807655334473
      ],
      "min": [
        -6.315664291381836,
        -9.19797134399414,
        -24.13060188293457
      ],
      "type": "VEC3"
    },
    {
      "bufferView": 2,
      "byteOffset": 5318592,
      "componentType": 5126,
      "count": 65532,
      "max": [
        0.999941885471344,
        0.9991193413734436,
        0.9999434351921082
      ],
      "min": [
        -0.9999385476112366,
        -0.9999988079071045,
        -0.9999343752861023
      ],
      "type": "VEC3"
    },
    {
      "bufferView": 1,
      "byteOffset": 1510736,
      "componentType": 5126,
      "count": 65532,
      "max": [
        0.9999421238899231,
        0.9982590079307556
      ],
      "min": [
        7.799069862812757e-06,
        0.0006109713576734066
      ],
      "type": "VEC2"
    },
    {
      "bufferView": 0,
      "byteOffset": 3564516,
      "componentType": 5125,
      "count": 332076,
      "type": "SCALAR"
    },
    {
      "bufferView": 2,
      "byteOffset": 6104976,
      "componentType": 5126,
      "count": 65532,
      "max": [
        11.984936714172363,
        11.15030574798584,
        19.4176082611084
      ],
      "min": [
        -9.353985786437988,
        -13.983192443847656,
        -15.973050117492676
      ],
      "type": "VEC3"
    },
    {
      "bufferView": 2,
      "byteOffset": 6891360,
      "componentType": 5126,
      "count": 65532,
      "max": [
        0.9999803304672241,
        0.9999530911445618,
        0.999979555606842
      ],
      "min": [
        -0.9998739957809448,
        -0.9999951720237732,
        -0.9997559785842896
      ],
      "type": "VEC3"
    },
    {
      "bufferView": 1,
      "byteOffset": 2034992,
      "componentType": 5126,
      "count": 65532,
      "max": [
        0.999833345413208,
        0.9980342388153076
      ],
      "min": [
        5.168440111447126e-06,
        5.1952898502349854e-05
      ],
      "type": "VEC2"
    },
    {
      "bufferView": 0,
      "byteOffset": 4892820,
      "componentType": 5125,
      "count": 332916,
      "type": "SCALAR"
    },
    {
      "bufferView": 2,
      "byteOffset": 7677744,
      "componentType": 5126,
      "count": 61351,
      "max": [
        10.773193359375,
        17.361387252807617,
        19.367725372314453
      ],
      "min": [
        -16.48594856262207,
        -13.966115951538086,
        -24.520767211914063
      ],
      "type": "VEC3"
    },
    {
      "bufferView": 2,
      "byteOffset": 8413956,
      "componentType": 5126,
      "count": 61351,
      "max": [
        0.9999765157699585,
        0.9998417496681213,
        0.9998538494110107
      ],
      "min": [
        -0.9999809265136719,
        -0.9999471306800842,
        -0.9999878406524658
      ],
      "type": "VEC3"
    },
    {
      "bufferView": 1,
      "byteOffset": 2559248,
      "componentType": 5126,
      "count": 61351,
      "max": [
        0.9998198747634888,
        0.9986357092857361
      ],
      "min": [
        7.0318192229024135e-06,
        1.7237849533557892e-05
      ],
      "type": "VEC2"
    },
    {
      "bufferView": 0,
      "byteOffset": 6224484,
      "componentType": 5125,
      "count": 230907,
      "type": "SCALAR"
    }
  ],
  "asset": {
    "extras": {
      "author": "antti.kekki (https://sketchfab.com/antti.kekki)",
      "license": "CC-BY-4.0 (http://creativecommons.org/licenses/by/4.0/)",
      "source": "https://sketchfab.com/3d-models/ww1-trench-maununneva-helsinki-finland-1e7281f5b9304787933201e3584573f1",
      "title": "WW1 trench, Maununneva, Helsinki, Finland"
    },
    "generator": "Sketchfab-12.67.0",
    "version": "2.0"
  },
  "bufferViews": [
    {
      "buffer": 0,
      "byteLength": 7148112,
      "name": "floatBufferViews",
      "target": 34963
    },
    {
      "buffer": 0,
      "byteLength": 3050056,
      "byteOffset": 7148112,
      "byteStride": 8,
      "name": "floatBufferViews",
      "target": 34962
    },
    {
      "buffer": 0,
      "byteLength": 9150168,
      "byteOffset": 10198168,
      "byteStride": 12,
      "name": "floatBufferViews",
      "target": 34962
    }
  ],
  "buffers": [
    {
      "byteLength": 19348336,
      "uri": "scene.bin"
    }
  ],
  "extensionsUsed": [
    "KHR_materials_unlit"
  ],
  "images": [
    {
      "uri": "textures/material1_baseColor.jpeg"
    },
    {
      "uri": "textures/material0_baseColor.jpeg"
    }
  ],
  "materials": [
    {
      "doubleSided": true,
      "extensions": {
        "KHR_materials_unlit": {}
      },
      "name": "material1",
      "pbrMetallicRoughness": {
        "baseColorTexture": {
          "index": 0
        },
        "metallicFactor": 0.0
      }
    },
    {
      "doubleSided": true,
      "extensions": {
        "KHR_materials_unlit": {}
      },
      "name": "material0",
      "pbrMetallicRoughness": {
        "baseColorTexture": {
          "index": 1
        },
        "metallicFactor": 0.0
      }
    }
  ],
  "meshes": [
    {
      "name": "Model_material1_0",
      "primitives": [
        {
          "attributes": {
            "NORMAL": 1,
            "POSITION": 0,
            "TEXCOORD_0": 2
          },
          "indices": 3,
          "material": 0,
          "mode": 4
        }
      ]
    },
    {
      "name": "Model_material1_0",
      "primitives": [
        {
          "attributes": {
            "NORMAL": 5,
            "POSITION": 4,
            "TEXCOORD_0": 6
          },
          "indices": 7,
          "material": 0,
          "mode": 4
        }
      ]
    },
    {
      "name": "Model_material1_0",
      "primitives": [
        {
          "attributes": {
            "NORMAL": 9,
            "POSITION": 8,
            "TEXCOORD_0": 10
          },
          "indices": 11,
          "material": 0,
          "mode": 4
        }
      ]
    },
    {
      "name": "Model_material0_0",
      "primitives": [
        {
          "attributes": {
            "NORMAL": 13,
            "POSITION": 12,
            "TEXCOORD_0": 14
          },
          "indices": 15,
          "material": 1,
          "mode": 4
        }
      ]
    },
    {
      "name": "Model_material0_0",
      "primitives": [
        {
          "attributes": {
            "NORMAL": 17,
            "POSITION": 16,
            "TEXCOORD_0": 18
          },
          "indices": 19,
          "material": 1,
          "mode": 4
        }
      ]
    },
    {
      "name": "Model_material0_0",
      "primitives": [
        {
          "attributes": {
            "NORMAL": 21,
            "POSITION": 20,
            "TEXCOORD_0": 22
          },
          "indices": 23,
          "material": 1,
          "mode": 4
        }
      ]
    }
  ],
  "nodes": [
    {
      "children": [
        1
      ],
      "matrix": [
        0.9701810479164124,
        -0.028932791203260474,
        0.24064844846725464,
        0.0,
        0.16415917873382568,
        0.8089033961296083,
        -0.5645591616630552,
        0.0,
        -0.1783270686864853,
        0.587229251861572,
        0.7895323038101197,
        0.0,
        0.6938271522521973,
        2.382207155227661,
        -0.968594074249267,
        1.0
      ],
      "name": "Sketchfab_model"
    },
    {
      "children": [
        2
      ],
      "matrix": [
        1.0,
        0.0,
        0.0,
        0.0,
        0.0,
        -1.0,
        0.0,
        0.0,
        0.0,
        0.0,
        -1.0,
        0.0,
        0.0,
        0.0,
        0.0,
        1.0
      ],
      "name": "model.fbx"
    },
    {
      "children": [
        3
      ],
      "name": "RootNode"
    },
    {
      "children": [
        4,
        5,
        6,
        7,
        8,
        9
      ],
      "name": "Model"
    },
    {
      "mesh": 0,
      "name": "Model_material1_0"
    },
    {
      "mesh": 1,
      "name": "Model_material1_0"
    },
    {
      "mesh": 2,
      "name": "Model_material1_0"
    },
    {
      "mesh": 3,
      "name": "Model_material0_0"
    },
    {
      "mesh": 4,
      "name": "Model_material0_0"
    },
    {
      "mesh": 5,
      "name": "Model_material0_0"
    }
  ],
  "samplers": [
    {
      "magFilter": 9729,
      "minFilter": 9987,
      "wrapS": 10497,
      "wrapT": 10497
    }
  ],
  "scene": 0,
  "scenes": [
    {
      "name": "Sketchfab_Scene",
      "nodes": [
        0
      ]
    }
  ],
  "textures": [
    {
      "sampler": 0,
      "source": 0
    },
    {
      "sampler": 0,
      "source": 1
    }
  ]
}
